<svg id="2b003c82-1218-4c2b-8f1e-19186563be98" data-name="Layer 1" xmlns="http://www.w3.org/2000/svg" xmlns:xlink="http://www.w3.org/1999/xlink" width="894.09" height="426" viewBox="0 0 894.09 426"><defs><linearGradient id="051aee35-41f1-4c3c-8b63-c2a9c195300b" x1="994.97" y1="624.54" x2="994.97" y2="581" gradientUnits="userSpaceOnUse"><stop offset="0" stop-color="gray" stop-opacity="0.25"/><stop offset="0.54" stop-color="gray" stop-opacity="0.12"/><stop offset="1" stop-color="gray" stop-opacity="0.1"/></linearGradient><linearGradient id="22a0618d-f1fb-4404-9fb5-9419d698739b" x1="255.91" y1="453.73" x2="255.91" y2="237" xlink:href="#051aee35-41f1-4c3c-8b63-c2a9c195300b"/><linearGradient id="c5a5a35b-c6a8-4245-8925-4a978257a362" x1="110.93" y1="303.6" x2="110.93" y2="63" xlink:href="#051aee35-41f1-4c3c-8b63-c2a9c195300b"/><linearGradient id="b140dc9a-c076-4192-8f91-5b86b4313d04" x1="352.87" y1="463.34" x2="352.87" y2="282.02" xlink:href="#051aee35-41f1-4c3c-8b63-c2a9c195300b"/><linearGradient id="c896af43-f7ab-40a4-b762-295126e1816a" x1="192.59" y1="302.38" x2="192.59" y2="100.44" xlink:href="#051aee35-41f1-4c3c-8b63-c2a9c195300b"/><linearGradient id="b69b6630-6ad6-44f1-b0fd-fdb3b0b6d467" x1="489.54" y1="78" x2="489.54" y2="61" xlink:href="#051aee35-41f1-4c3c-8b63-c2a9c195300b"/><linearGradient id="ea10049c-a6f8-48ab-a896-133c64f9e66e" x1="284.54" y1="303" x2="284.54" y2="75.62" xlink:href="#051aee35-41f1-4c3c-8b63-c2a9c195300b"/><linearGradient id="f91998cf-e1cf-4c26-a9b3-c559f3dd3cc6" x1="695.54" y1="303" x2="695.54" y2="75.62" xlink:href="#051aee35-41f1-4c3c-8b63-c2a9c195300b"/><linearGradient id="137cd847-fca8-447b-bada-12d6f93ae546" x1="488.09" y1="233" x2="488.09" y2="226" xlink:href="#051aee35-41f1-4c3c-8b63-c2a9c195300b"/><linearGradient id="fe358a36-5190-4691-afef-fd0a4af3c2e8" x1="488.09" y1="243" x2="488.09" y2="236" xlink:href="#051aee35-41f1-4c3c-8b63-c2a9c195300b"/><linearGradient id="3bbec323-6adb-4e77-8a25-0870dfa19092" x1="488.09" y1="253" x2="488.09" y2="246" xlink:href="#051aee35-41f1-4c3c-8b63-c2a9c195300b"/><linearGradient id="0f3dff7f-34fb-41dc-9feb-55e4b66b5c03" x1="488.09" y1="262" x2="488.09" y2="255" xlink:href="#051aee35-41f1-4c3c-8b63-c2a9c195300b"/><linearGradient id="0be3f242-af57-4ad8-80b7-e5738bfbde20" x1="641.04" y1="460" x2="641.04" y2="452" xlink:href="#051aee35-41f1-4c3c-8b63-c2a9c195300b"/><linearGradient id="9118b0ca-d295-4ee5-80ee-83118e1c961d" x1="488.09" y1="273" x2="488.09" y2="259" xlink:href="#051aee35-41f1-4c3c-8b63-c2a9c195300b"/><linearGradient id="30ac636a-d1fd-4b20-9a7d-19cf226cc959" x1="555.09" y1="302" x2="555.09" y2="271.6" xlink:href="#051aee35-41f1-4c3c-8b63-c2a9c195300b"/><linearGradient id="8fa659f5-9b8d-49d1-8836-523a19813625" x1="422.09" y1="302" x2="422.09" y2="271.6" xlink:href="#051aee35-41f1-4c3c-8b63-c2a9c195300b"/><linearGradient id="695d8fad-2435-4947-825a-3574d68cd404" x1="324.59" y1="206" x2="324.59" y2="148" xlink:href="#051aee35-41f1-4c3c-8b63-c2a9c195300b"/><linearGradient id="90434fe2-3c69-4541-96c3-06f2180b249e" x1="324.59" y1="302" x2="324.59" y2="204.53" xlink:href="#051aee35-41f1-4c3c-8b63-c2a9c195300b"/><linearGradient id="32bd03bc-8125-46c7-9073-9747b1fecbe5" x1="809.71" y1="531.35" x2="809.71" y2="419" xlink:href="#051aee35-41f1-4c3c-8b63-c2a9c195300b"/><linearGradient id="7f5add75-a6b6-4e0f-a4dc-44bbf33820c4" x1="864.04" y1="512.52" x2="864.04" y2="497.76" xlink:href="#051aee35-41f1-4c3c-8b63-c2a9c195300b"/><linearGradient id="47ff2e0c-d045-4afb-b8bb-405404c36ecd" x1="776.06" y1="482" x2="776.06" y2="471.38" xlink:href="#051aee35-41f1-4c3c-8b63-c2a9c195300b"/><linearGradient id="491c5384-5bb6-4515-9bf8-2e096eec042e" x1="822.84" y1="531" x2="822.84" y2="523" xlink:href="#051aee35-41f1-4c3c-8b63-c2a9c195300b"/><linearGradient id="71c937f5-a538-45d4-ad5b-4385e8eb0d4b" x1="652.01" y1="300.18" x2="652.01" y2="292.03" xlink:href="#051aee35-41f1-4c3c-8b63-c2a9c195300b"/><linearGradient id="4a0e2520-3ab6-4089-9dae-01315fb75998" x1="684.86" y1="300.21" x2="684.86" y2="292" xlink:href="#051aee35-41f1-4c3c-8b63-c2a9c195300b"/><linearGradient id="5e2ad4f4-197c-461c-b4c1-cc0037b97f70" x1="670.18" y1="539.57" x2="670.18" y2="488" xlink:href="#051aee35-41f1-4c3c-8b63-c2a9c195300b"/><linearGradient id="163f39b8-8aaf-446d-87c2-943b408736df" x1="877.97" y1="626.54" x2="877.97" y2="583" xlink:href="#051aee35-41f1-4c3c-8b63-c2a9c195300b"/><linearGradient id="097014fb-e012-48bd-b2a2-931656a939e9" x1="929.41" y1="600.17" x2="929.41" y2="483.01" xlink:href="#051aee35-41f1-4c3c-8b63-c2a9c195300b"/><linearGradient id="6df3e3e5-86a3-44c3-9316-3d4cd973ba86" x1="940.81" y1="507.3" x2="940.81" y2="476" xlink:href="#051aee35-41f1-4c3c-8b63-c2a9c195300b"/><linearGradient id="56b80dd4-5144-4653-b9bc-1811d19424ed" x1="1002.59" y1="602.27" x2="1002.59" y2="579.33" xlink:href="#051aee35-41f1-4c3c-8b63-c2a9c195300b"/><linearGradient id="28081b5f-bb69-4175-8d80-4a62325bfafe" x1="946.3" y1="614.95" x2="946.3" y2="527" xlink:href="#051aee35-41f1-4c3c-8b63-c2a9c195300b"/><linearGradient id="4fb3b8b8-a37f-4d33-b457-fd56a9bcb668" x1="165.59" y1="358" x2="165.59" y2="353.79" xlink:href="#051aee35-41f1-4c3c-8b63-c2a9c195300b"/><linearGradient id="31afc422-f12e-42de-a731-91cfe4c9b4c0" x1="269.59" y1="341" x2="269.59" y2="336.79" xlink:href="#051aee35-41f1-4c3c-8b63-c2a9c195300b"/><linearGradient id="cad59456-ac5f-43ce-bcf8-ce9cb84d0f45" x1="314.59" y1="358" x2="314.59" y2="353.79" xlink:href="#051aee35-41f1-4c3c-8b63-c2a9c195300b"/><linearGradient id="1a985ef9-91cc-44e3-9bbe-3b955a6a05b9" x1="344.59" y1="406" x2="344.59" y2="401.79" xlink:href="#051aee35-41f1-4c3c-8b63-c2a9c195300b"/><linearGradient id="4dc24e55-70a5-46de-a838-acd1c1dd0491" x1="113.09" y1="415" x2="113.09" y2="410.79" xlink:href="#051aee35-41f1-4c3c-8b63-c2a9c195300b"/><linearGradient id="c2ba7a5b-891e-4312-b945-062d3e28baf5" x1="136.59" y1="426" x2="136.59" y2="421.79" xlink:href="#051aee35-41f1-4c3c-8b63-c2a9c195300b"/><linearGradient id="f8e53d43-3cfc-4984-b636-96b6858a0d95" x1="328.09" y1="416" x2="328.09" y2="411.79" xlink:href="#051aee35-41f1-4c3c-8b63-c2a9c195300b"/><linearGradient id="5214ff22-1765-4423-990c-afaa7d5feab6" x1="472.09" y1="388" x2="472.09" y2="383.79" xlink:href="#051aee35-41f1-4c3c-8b63-c2a9c195300b"/><linearGradient id="affed9dc-8c9f-4e15-a68b-b4d37b04e580" x1="543.59" y1="365" x2="543.59" y2="360.79" xlink:href="#051aee35-41f1-4c3c-8b63-c2a9c195300b"/><linearGradient id="5cfeb59b-50ee-4fbe-aece-b9c779a9ef04" x1="664.59" y1="406" x2="664.59" y2="401.79" xlink:href="#051aee35-41f1-4c3c-8b63-c2a9c195300b"/><linearGradient id="bd443338-970b-41d8-a0a9-ad46ad3443de" x1="644.09" y1="422" x2="644.09" y2="417.79" xlink:href="#051aee35-41f1-4c3c-8b63-c2a9c195300b"/><linearGradient id="afe93035-0778-4bba-92d5-73f75607f287" x1="581.65" y1="452.49" x2="581.65" y2="452.06" xlink:href="#051aee35-41f1-4c3c-8b63-c2a9c195300b"/><linearGradient id="a16dde29-af65-4251-9cbe-fd11a089ef57" x1="609.22" y1="539.24" x2="609.22" y2="432" xlink:href="#051aee35-41f1-4c3c-8b63-c2a9c195300b"/><linearGradient id="75d1472e-bff2-4dbd-a077-4f04cd393be1" x1="253.97" y1="119.91" x2="253.97" y2="106.53" xlink:href="#051aee35-41f1-4c3c-8b63-c2a9c195300b"/><linearGradient id="78167e85-cdc8-443f-aeca-b1b3a57f6b32" x1="239.23" y1="107" x2="239.23" y2="102.21" xlink:href="#051aee35-41f1-4c3c-8b63-c2a9c195300b"/><linearGradient id="3b7b7e5b-6798-41f2-b764-80febc633f33" x1="252.71" y1="142.41" x2="252.71" y2="117.66" xlink:href="#051aee35-41f1-4c3c-8b63-c2a9c195300b"/><linearGradient id="7ae9024c-88a5-4cfa-86bd-78c79132cf40" x1="222.98" y1="248.86" x2="222.98" y2="67.6" xlink:href="#051aee35-41f1-4c3c-8b63-c2a9c195300b"/><linearGradient id="d26d4715-3dec-4a0e-8a9b-a22f2850aa22" x1="253.09" y1="122" x2="253.09" y2="115.22" xlink:href="#051aee35-41f1-4c3c-8b63-c2a9c195300b"/><linearGradient id="094520fc-ca0f-47fd-aa5b-094bf7992c50" x1="375.66" y1="541" x2="375.66" y2="473" xlink:href="#051aee35-41f1-4c3c-8b63-c2a9c195300b"/><linearGradient id="25a5fc66-c236-4f54-b131-90b744b0cb50" x1="536.83" y1="356.91" x2="536.83" y2="343.53" gradientTransform="matrix(-1, 0, 0, 1, 1371.04, -237)" xlink:href="#051aee35-41f1-4c3c-8b63-c2a9c195300b"/><linearGradient id="a50af3f7-859d-47a8-a025-60efee98935c" x1="522.09" y1="344" x2="522.09" y2="339.21" gradientTransform="matrix(-1, 0, 0, 1, 1371.04, -237)" xlink:href="#051aee35-41f1-4c3c-8b63-c2a9c195300b"/><linearGradient id="577c082c-dccd-46b7-822a-295cdd9a0184" x1="535.58" y1="379.41" x2="535.58" y2="354.66" gradientTransform="matrix(-1, 0, 0, 1, 1371.04, -237)" xlink:href="#051aee35-41f1-4c3c-8b63-c2a9c195300b"/><linearGradient id="b7d3a210-c113-40e9-adb9-b8319815a8f5" x1="505.85" y1="485.86" x2="505.85" y2="304.6" gradientTransform="matrix(-1, 0, 0, 1, 1371.04, -237)" xlink:href="#051aee35-41f1-4c3c-8b63-c2a9c195300b"/><linearGradient id="bd44765c-4ca4-4e24-8507-b43d2ce6a5d0" x1="535.96" y1="359" x2="535.96" y2="352.22" gradientTransform="matrix(-1, 0, 0, 1, 1371.04, -237)" xlink:href="#051aee35-41f1-4c3c-8b63-c2a9c195300b"/><linearGradient id="fefacc84-be80-4862-9c3d-a9d37eed5712" x1="505.57" y1="541" x2="505.57" y2="473" gradientTransform="matrix(-1, 0, 0, 1, 1524, 0)" xlink:href="#051aee35-41f1-4c3c-8b63-c2a9c195300b"/></defs><title>Bus stop</title><path d="M995,624.54a21.77,21.77,0,1,1,21.77-21.77A21.79,21.79,0,0,1,995,624.54ZM995,586a16.76,16.76,0,1,0,16.76,16.76A16.78,16.78,0,0,0,995,586Z" transform="translate(-152.96 -237)" fill="url(#051aee35-41f1-4c3c-8b63-c2a9c195300b)"/><ellipse id="53a1ace1-949e-4b57-abab-afbe5595ad7e" data-name="&lt;Path&gt;" cx="743.84" cy="287.15" rx="5.26" ry="6.7" fill="#af998d"/><path d="M896.79,533.4c-4.31,0-7.82-4.15-7.82-9.25s3.51-9.25,7.82-9.25,7.82,4.15,7.82,9.25S901.1,533.4,896.79,533.4Zm0-13.4c-1.28,0-2.71,1.7-2.71,4.15s1.43,4.15,2.71,4.15c1.44,0,2.71-1.94,2.71-4.15S898.24,520,896.79,520Z" transform="translate(-152.96 -237)" fill="#af998d"/><g id="891819e2-c616-41dc-b64f-183d05479534" data-name="&lt;Group&gt;"><path d="M339.54,348.82a46.54,46.54,0,0,0-9.61-69.61,27.52,27.52,0,0,0,4.41-15c0-15-11.92-27.22-26.62-27.22a26.71,26.71,0,0,0-25.54,19.6,39.47,39.47,0,0,0-34-19.6c-21.91,0-39.67,18.16-39.67,40.57a41.31,41.31,0,0,0,2.43,14c-.8-.06-1.61-.13-2.43-.13C191,291.45,176.7,306,176.7,324c0,1.11.06,2.21.16,3.29A40.47,40.47,0,0,0,153,364.45c0,22.33,17.7,40.44,39.54,40.44a38.88,38.88,0,0,0,6.84-.62c-.12,1.35-.19,2.71-.19,4.09,0,25.06,19.86,45.37,44.37,45.37a43.47,43.47,0,0,0,25.26-8.08,32.56,32.56,0,0,0,21.45,8.08c18.3,0,33.14-15.18,33.14-33.9,0-.81-.06-1.61-.12-2.41h.12c19.6,0,35.49-16.25,35.49-36.3A36.39,36.39,0,0,0,339.54,348.82Z" transform="translate(-152.96 -237)" fill="url(#22a0618d-f1fb-4404-9fb5-9419d698739b)"/></g><path id="1dd4b856-1522-4431-8836-683135371186" data-name="&lt;Path&gt;" d="M334.41,348.61a43.69,43.69,0,0,0-9-65.34,25.84,25.84,0,0,0,4.13-14.06c0-14.11-11.19-25.55-25-25.55a25.07,25.07,0,0,0-24,18.4,37.05,37.05,0,0,0-31.88-18.4c-20.56,0-37.23,17-37.23,38.08a38.78,38.78,0,0,0,2.28,13.15c-.75-.06-1.51-.12-2.28-.12-16.51,0-29.89,13.68-29.89,30.56,0,1,.05,2.07.15,3.09a38,38,0,0,0-22.44,34.87c0,21,16.62,38,37.11,38a36.49,36.49,0,0,0,6.42-.58c-.11,1.26-.18,2.54-.18,3.84,0,23.52,18.64,42.59,41.64,42.59A40.81,40.81,0,0,0,268,439.49a30.56,30.56,0,0,0,20.13,7.59c17.18,0,31.11-14.25,31.11-31.82,0-.76-.06-1.51-.11-2.26h.11c18.4,0,33.32-15.25,33.32-34.07A34.16,34.16,0,0,0,334.41,348.61Z" transform="translate(-152.96 -237)" fill="#00897b"/><rect x="106.09" y="63" width="9.67" height="240.6" fill="url(#c5a5a35b-c6a8-4245-8925-4a978257a362)"/><rect x="108.84" y="66.38" width="4.87" height="237.22" fill="#795548"/><rect x="253.72" y="350.96" width="58.77" height="4.87" transform="translate(-321.5 83.98) rotate(-47.2)" fill="#795548"/><rect x="240" y="370.85" width="4.87" height="51.57" transform="translate(-373.49 117.79) rotate(-53.4)" fill="#795548"/><g id="4398a259-c4de-4811-931c-0badeaf41d01" data-name="&lt;Group&gt;"><path d="M278.81,375.57a37.54,37.54,0,0,1-10.18-25.66,38.1,38.1,0,0,1,18.69-32.57,22.12,22.12,0,0,1-3.9-12.54C283.42,292.22,294,282,307,282a23.47,23.47,0,0,1,22.62,16.4A35.38,35.38,0,0,1,359.69,282c19.4,0,35.13,15.2,35.13,33.94a32.85,32.85,0,0,1-2.15,11.72c.71-.05,1.42-.1,2.15-.1,15.57,0,28.2,12.2,28.2,27.24a26.63,26.63,0,0,1-.14,2.75A33.83,33.83,0,0,1,444,388.65c0,18.68-15.68,33.83-35,33.83A36.39,36.39,0,0,1,403,422c.1,1.13.17,2.27.17,3.42,0,21-17.59,38-39.29,38a40.05,40.05,0,0,1-22.37-6.76,29.83,29.83,0,0,1-19,6.76c-16.21,0-29.35-12.7-29.35-28.36,0-.68.06-1.34.11-2h-.11c-17.36,0-31.43-13.6-31.43-30.37A30.26,30.26,0,0,1,278.81,375.57Z" transform="translate(-152.96 -237)" fill="url(#b140dc9a-c076-4192-8f91-5b86b4313d04)"/></g><path id="4f3f5e7a-ba56-48e6-8d44-63bbc993f5c0" data-name="&lt;Path&gt;" d="M282,375.45a35.93,35.93,0,0,1-9.75-24.56,36.47,36.47,0,0,1,17.89-31.17,21.17,21.17,0,0,1-3.73-12c0-12,10.1-21.8,22.56-21.8a22.47,22.47,0,0,1,21.65,15.69,33.86,33.86,0,0,1,28.79-15.69c18.57,0,33.62,14.54,33.62,32.49A31.44,31.44,0,0,1,391,329.61c.68,0,1.36-.1,2.06-.1,14.91,0,27,11.67,27,26.07a25.49,25.49,0,0,1-.14,2.63A32.38,32.38,0,0,1,440.14,388c0,17.88-15,32.38-33.51,32.38a34.83,34.83,0,0,1-5.8-.49c.1,1.08.16,2.17.16,3.27,0,20.07-16.84,36.33-37.61,36.33A38.34,38.34,0,0,1,342,453a28.55,28.55,0,0,1-18.18,6.47c-15.52,0-28.09-12.15-28.09-27.14,0-.65.05-1.29.1-1.93h-.1c-16.62,0-30.09-13-30.09-29.07A29,29,0,0,1,282,375.45Z" transform="translate(-152.96 -237)" fill="#009688"/><line id="6a3acf36-93ec-47c2-8841-8a42cc761d2d" data-name="&lt;Path&gt;" x1="192.77" y1="100.44" x2="192.77" y2="302.38" fill="#795548"/><rect x="187.09" y="100.44" width="11" height="201.94" fill="url(#c896af43-f7ab-40a4-b762-295126e1816a)"/><rect x="189.73" y="100.44" width="6.08" height="201.94" fill="#795548"/><line id="51ba9b07-0a25-422a-960e-72ae71ab82e8" data-name="&lt;Path&gt;" x1="193.39" y1="160.92" x2="157.33" y2="124.14" fill="#795548"/><rect x="325.27" y="353.78" width="6.08" height="51.51" transform="translate(-324.78 101.34) rotate(-44.43)" fill="#795548"/><line id="32456447-6857-405c-a344-72aa5fad1b23" data-name="&lt;Path&gt;" x1="193.39" y1="192.53" x2="230.77" y2="166.31" fill="#795548"/><rect x="342.2" y="413.38" width="45.67" height="6.08" transform="translate(-325.92 48.24) rotate(-35.06)" fill="#795548"/><rect x="35.24" y="301.17" width="858.85" height="3.65" fill="#b0bec5"/><g id="eef2fde3-5c3b-443b-860d-db0da1981b61" data-name="&lt;Rectangle&gt;"><rect x="265.04" y="61" width="449" height="17" fill="url(#b69b6630-6ad6-44f1-b0fd-fdb3b0b6d467)"/></g><rect id="8a6d536a-623a-49ef-8be9-452104da29a3" data-name="&lt;Rectangle&gt;" x="269.17" y="63.26" width="441.92" height="12.37" fill="#00838f"/><g id="7bd8d7b0-ce97-48b1-b38f-8f6c639fbcac" data-name="&lt;Rectangle&gt;"><rect x="276.04" y="75.62" width="17" height="227.38" fill="url(#ea10049c-a6f8-48ab-a896-133c64f9e66e)"/></g><rect id="2d539944-c990-44a1-9ea1-ba04350607e8" data-name="&lt;Rectangle&gt;" x="279.92" y="75.62" width="11.29" height="224.72" fill="#00838f"/><g id="a5e1461b-edca-4287-b673-754bff57977a" data-name="&lt;Rectangle&gt;"><rect x="687.04" y="75.62" width="17" height="227.38" fill="url(#f91998cf-e1cf-4c26-a9b3-c559f3dd3cc6)"/></g><rect id="31b82ac9-188f-4b0a-b569-6787bce45cab" data-name="&lt;Rectangle&gt;" x="690.39" y="75.62" width="11.29" height="224.72" fill="#00838f"/><rect x="418.44" y="219.66" width="6.08" height="43.79" fill="#00bcd4"/><rect x="418.44" y="219.66" width="6.08" height="43.79" opacity="0.3"/><rect x="552.25" y="219.66" width="6.08" height="43.79" fill="#00bcd4"/><rect x="552.25" y="219.66" width="6.08" height="43.79" opacity="0.3"/><rect x="407.09" y="226" width="162" height="7" fill="url(#137cd847-fca8-447b-bada-12d6f93ae546)"/><rect x="407.09" y="236" width="162" height="7" fill="url(#fe358a36-5190-4691-afef-fd0a4af3c2e8)"/><rect x="407.09" y="246" width="162" height="7" fill="url(#3bbec323-6adb-4e77-8a25-0870dfa19092)"/><rect x="407.09" y="255" width="162" height="7" fill="url(#0f3dff7f-34fb-41dc-9feb-55e4b66b5c03)"/><rect x="408" y="226.96" width="160.21" height="4.87" fill="#00bcd4"/><rect x="408" y="246.42" width="160.21" height="4.87" fill="#00bcd4"/><rect x="408" y="236.69" width="160.21" height="4.87" fill="#00bcd4"/><path d="M722,460c-.48-4.51-3.3-8-6.69-8H566.74c-3.39,0-6.22,3.49-6.69,8Z" transform="translate(-152.96 -237)" fill="url(#0be3f242-af57-4ad8-80b7-e5738bfbde20)"/><path d="M721.09,459.09a6.71,6.71,0,0,0-6.61-5.73H567.64a6.71,6.71,0,0,0-6.61,5.73Z" transform="translate(-152.96 -237)" fill="#00bcd4"/><path d="M561,493.16v3a6.71,6.71,0,0,0,6.69,6.69H714.47a6.71,6.71,0,0,0,6.69-6.69v-3Z" transform="translate(-152.96 -237)" fill="#00bcd4"/><rect id="d6e88256-66a2-4b82-8730-c9830ffa0952" data-name="&lt;Rectangle&gt;" x="399.13" y="259.77" width="177.95" height="11.83" fill="#00bcd4"/><g id="4293dcfb-a0a1-4072-b1ca-83397f80286b" data-name="&lt;Rectangle&gt;"><rect x="398.09" y="259" width="180" height="14" fill="url(#9118b0ca-d295-4ee5-80ee-83118e1c961d)"/></g><rect id="7c4f179f-c4ed-4c53-856a-932c9761288c" data-name="&lt;Rectangle&gt;" x="399.13" y="259.77" width="177.95" height="11.83" opacity="0.2"/><rect id="1c19a704-8291-4bd8-98ab-715e064ececf" data-name="&lt;Rectangle&gt;" x="415.26" y="271.6" width="13.44" height="29.57" fill="#00bcd4"/><rect id="c16d2498-7600-4657-a79e-5d0bbeafb5db" data-name="&lt;Rectangle&gt;" x="548.85" y="271.6" width="13.44" height="29.57" fill="#00bcd4"/><rect id="784caed4-54eb-4c29-a45d-b1b8ee27c700" data-name="&lt;Rectangle&gt;" x="415.26" y="271.6" width="13.44" height="29.57" opacity="0.1"/><g id="ba9c10fd-016d-4197-a31c-b95dc1eb0232" data-name="&lt;Rectangle&gt;"><rect x="547.09" y="271.6" width="16" height="30.4" fill="url(#30ac636a-d1fd-4b20-9a7d-19cf226cc959)"/></g><g id="92b24226-2b84-441e-873f-0292518eb558" data-name="&lt;Rectangle&gt;"><rect x="414.09" y="271.6" width="16" height="30.4" fill="url(#8fa659f5-9b8d-49d1-8836-523a19813625)"/></g><rect id="21b23782-9b94-4eab-a1fe-097d32caa007" data-name="&lt;Rectangle&gt;" x="548.85" y="271.6" width="13.44" height="29.57" opacity="0.1"/><g id="aaf01aa5-3cfe-4b6a-a11f-368864a9b4c9" data-name="&lt;Group&gt;"><g id="eb9aabbc-88c4-4487-9503-e2e60b90cf94" data-name="&lt;Rectangle&gt;"><rect x="302.09" y="148" width="45" height="58" rx="6.42" ry="6.42" fill="url(#695d8fad-2435-4947-825a-3574d68cd404)"/></g><rect id="8e7f6fb4-4e00-41b8-bb35-2bfa144244dd" data-name="&lt;Rectangle&gt;" x="303.68" y="149.2" width="41.99" height="55.33" rx="6.42" ry="6.42" fill="#af998d"/><rect id="7d9c6357-7507-42c4-9689-3589ccf04658" data-name="&lt;Rectangle&gt;" x="308.73" y="158.57" width="31.9" height="33.7" rx="5.42" ry="5.42" fill="#fff"/><g id="9e22e560-b493-48a7-80d2-b54b6902fa2a" data-name="&lt;Rectangle&gt;"><rect x="321.09" y="204.53" width="7" height="97.47" fill="url(#90434fe2-3c69-4541-96c3-06f2180b249e)"/></g><rect id="a439c0c3-9245-404c-985a-d074258667cd" data-name="&lt;Rectangle&gt;" x="322.43" y="204.53" width="4.69" height="96.6" fill="#00838f"/><path id="954aa76e-66ba-42db-91bb-5ce466a58ad0" data-name="&lt;Path&gt;" d="M464.34,415.94v-3.5h1.23l.17-4.85s-.14-1.23,1.72-1.23h20.82s1.06-.38,1.16.67l.45.3v5.11h1.22v3.5a1.27,1.27,0,0,1-.88,1.28h-1.55v-2.38a5.85,5.85,0,0,0-6.35.72l0,2.95h-9.44v-3.66a3.74,3.74,0,0,0-4.87,0v3.66h-2.42A7.27,7.27,0,0,1,464.34,415.94Z" transform="translate(-152.96 -237)" fill="#af998d"/><polygon id="61ca2b5a-6eb0-4825-b7e6-19feddf3aaf0" data-name="&lt;Path&gt;" points="313.82 176.65 313.82 173 315.03 173 315.03 171.78 316.25 171.78 316.25 176.65 313.82 176.65" fill="#f3f9fe"/><rect id="ecab61da-38b9-4b55-8773-950778d0ddec" data-name="&lt;Path&gt;" x="317.47" y="171.78" width="4.87" height="4.87" fill="#f3f9fe"/><rect id="527157e1-a657-4aa5-9a28-804762d69a81" data-name="&lt;Path&gt;" x="324.77" y="171.78" width="4.87" height="4.87" fill="#f3f9fe"/><rect id="9443b816-f45a-4d62-872b-0db0fcd7c30d" data-name="&lt;Path&gt;" x="329.63" y="171.78" width="4.87" height="4.87" fill="#f3f9fe"/><circle id="93632e48-deae-4b61-b641-8df280b13e27" data-name="&lt;Path&gt;" cx="317.8" cy="179.53" r="1.03" fill="#af998d"/><circle id="b39d41cf-f37d-49cc-9ac2-5028dd8bb683" data-name="&lt;Path&gt;" cx="332.94" cy="179.53" r="1.03" fill="#af998d"/></g><path d="M841.36,474.05c-1.72-4.42-3.56-9-7.1-12.17a30.3,30.3,0,0,0-6.8-4.19l-15.08-7.55-.49-.25a35.85,35.85,0,0,0,10.27-1.56,4.39,4.39,0,0,0,2.77-1.84A1.79,1.79,0,0,0,824,444a1.33,1.33,0,0,0,1.22-1.42,1.23,1.23,0,0,0-.69-.89,1.73,1.73,0,0,0,1.15-1.66,1.59,1.59,0,0,0-.79-1.18,3.17,3.17,0,0,0,.73-.16,1.89,1.89,0,0,0,1.32-2c-.21-1.07-1.54-1.48-2.64-1.49s-2.33.11-3.15-.61a5,5,0,0,0,5.42-3c-3-.68-6.17.07-9.24.46s-6.49.36-8.92-1.58c-3-2.37-3.54-6.84-6.4-9.36a9.65,9.65,0,0,0-6.2-2.13,28.7,28.7,0,0,0-6.62.9,15.26,15.26,0,0,0-4.49,1.47c-2.56,1.28-2.2,3.07-1,4.84a7.88,7.88,0,0,0-.84,3.23c-.34,3.25-1.25,4.12-3.69,6.08a4.82,4.82,0,0,0-.59.56,1.47,1.47,0,0,0,.95,2.37,3,3,0,0,1,1.6.92,11.82,11.82,0,0,1,1.64,3.28,3.91,3.91,0,0,0,2.5,2.5,2.86,2.86,0,0,0,1.92-.36,3.52,3.52,0,0,0,.21.39c1,1.36,2.78,1.79,4.43,2.13l3.41.69a9.32,9.32,0,0,0-.59,6.94,42.32,42.32,0,0,1,1.59,5.45c.3,2,.1,4.1.79,5.93-2,0-3.91,0-5.87-.07a13.16,13.16,0,0,1-5.74-1.18,21,21,0,0,0-2.46-1.4,2.4,2.4,0,0,0-2.63.41c-.62.71-.21,2.14.73,2.13.14.87-.59,1.63-1.34,2.08a6,6,0,0,0-2.11,1.53c-.48.73-.2,2,.67,2.07a1,1,0,0,0,1.67,1l-.11,1.78a3.16,3.16,0,0,1,2.28-.85l.71,2.51a2.21,2.21,0,0,0,1.81-1.31l.23.07a13.59,13.59,0,0,0,5-.11,124.94,124.94,0,0,1,16.23-1c.75,0,1.85.13,3,.19a20,20,0,0,1,3.42,3.52c1.28,1.69,2.43,3.71,4.43,4.42a4.92,4.92,0,0,0,1.57.26l-.21.3a5.38,5.38,0,0,1-2,1.45,83,83,0,0,1-8.89,3.78c-3.38,1.21-7.26,2.59-8.54,5.94-.83,2.19-.28,4.64.34,6.9,2.32,8.57,5.6,17.31,12.19,23.25l4.38-1.75,2.08,3.13c-3,.42-5.67.55-8.57,2.18a3.61,3.61,0,0,0-1.4,1.18,1.41,1.41,0,0,0,.1,1.71,2.12,2.12,0,0,0,1.46.4l20.78.44c-.88-2.13-1.82-4.35-3.58-5.84a4.6,4.6,0,0,0-2.59-1.19c-1.16-1.31-2.3-2.67-3.51-3.94l2.31-.92Q816,509.38,809.72,499c6.59-4.78,15.47-4.46,23.21-7a13.47,13.47,0,0,0,5.69-3.18c2.8-2.9,3.16-7.31,3.36-11.33.06-1.19,0-2.58-.77-3.39Z" transform="translate(-152.96 -237)" fill="url(#32bd03bc-8125-46c7-9073-9747b1fecbe5)"/><path d="M874.85,509.6l-8.93-10.89c-.38-.46-.84-1-1.44-.94a1.91,1.91,0,0,0-1.16.65c-.63.59-1.65,1.43-2.44,2.3a61.67,61.67,0,0,0-6.17.07c-2.55.22-2.42,2-2.12,4.33a2.53,2.53,0,0,0,.47,1.35,2.85,2.85,0,0,0,2.36.63l8.53-.34a78.8,78.8,0,0,0,8.18,5.11,4.38,4.38,0,0,0,1.89.66,1.56,1.56,0,0,0,1.58-1A2.32,2.32,0,0,0,874.85,509.6Z" transform="translate(-152.96 -237)" fill="url(#7f5add75-a6b6-4e0f-a4dc-44bbf33820c4)"/><path d="M777.69,477.9c.33-.25.75-.33,1.08-.57s.53-.77.22-1a.92.92,0,0,0-.73-.12q-1.38.17-2.75.45c.43-.39,1.08-.43,1.6-.7s.87-1.08.38-1.41a1.11,1.11,0,0,0-.88,0,21.24,21.24,0,0,1-2.32.51c.13-.73,1.58-2.1,1.38-2.79-.3-1-2.24-.78-3.08-.74a4.15,4.15,0,0,0-2.09.48,1.43,1.43,0,0,0-.57,1.86c.23.34.65.55.8.93.31.83-.94,1.69-.58,2.51.29.66,1.44.68,1.59,1.39a1.93,1.93,0,0,1-.08.73,2.44,2.44,0,0,0,1.93,2.57,5.26,5.26,0,0,0,3.42-.56,13.26,13.26,0,0,0,5.32-4.47,9.9,9.9,0,0,0-4.83,2.08C777.19,478.69,777.37,478.15,777.69,477.9Z" transform="translate(-152.96 -237)" fill="url(#47ff2e0c-d045-4afb-b8bb-405404c36ecd)"/><path id="ca17d27c-0e2d-4ff7-af4f-98155e27409a" data-name="&lt;Path&gt;" d="M792,475a12.73,12.73,0,0,1-4.7.1,3.91,3.91,0,0,1-3.14-3.13,3.87,3.87,0,0,1,2.54-3.62,11.33,11.33,0,0,1,4.65-.57l24.3.4c-.48,1.46-.86,4.54-2.13,5.54s-4.68.37-6.31.38A117,117,0,0,0,792,475Z" transform="translate(-152.96 -237)" fill="#f6b9ad"/><path id="27218c03-5688-408a-8b01-311f122d3966" data-name="&lt;Path&gt;" d="M782,438a4.51,4.51,0,0,0-.55.53,1.38,1.38,0,0,0,.89,2.22,2.81,2.81,0,0,1,1.5.86,11.07,11.07,0,0,1,1.54,3.07,3.67,3.67,0,0,0,2.35,2.35,3.28,3.28,0,0,0,2.81-1.09c.75-.73,1.3-1.64,2-2.38a39.94,39.94,0,0,1,3.31-2.55,10.46,10.46,0,0,0,3.49-5.57,6.29,6.29,0,0,0-.42-4.58c-1.82-3.17-8.45-4.69-11.58-2.74-1.5.93-1.74,2.56-1.91,4.19C785.09,435.38,784.24,436.19,782,438Z" transform="translate(-152.96 -237)" fill="#f6b9ad"/><path id="d8cebb98-869e-49a5-83a7-b1ca49979ebc" data-name="&lt;Path&gt;" d="M797.33,450.52c1.5.56,3.46.22,4.23-1.18,1.1-2-.86-4.43-.66-6.72.17-1.95,1.83-3.38,2.78-5.09a8.48,8.48,0,0,0-.27-8.27,10.88,10.88,0,0,0-6.89-4.86c-1.73-.41-3.79-.35-5,.95-1.51,1.61-1,4.16-.68,6.34a24.54,24.54,0,0,1,.12,6.16c-.17,1.64-1.22,3.85-.79,5.48.35,1.32,1.91,2.49,2.78,3.46C794.22,448.18,795.5,449.83,797.33,450.52Z" transform="translate(-152.96 -237)" fill="#70b1e8"/><path id="4ce861a1-27ed-49bd-a476-c0051179a527" data-name="&lt;Path&gt;" d="M794.55,436.68a18.88,18.88,0,0,1,1.43-3.61,2.39,2.39,0,0,1,.67-.89.89.89,0,0,1,1,0,1.27,1.27,0,0,1,.35.61,5.76,5.76,0,0,1,.38,2.8,2.67,2.67,0,0,1-1.67,2.14,1.76,1.76,0,0,1-2.24-1.18" transform="translate(-152.96 -237)" fill="none"/><path id="bc5e3632-f6f9-466a-b21f-cd992f672939" data-name="&lt;Path&gt;" d="M788.52,441.35a6.51,6.51,0,0,1-2.66,3.12" transform="translate(-152.96 -237)" fill="none" stroke="#f3f9fe" stroke-miterlimit="10"/><path id="7e66ef2d-9535-4fef-aab1-82de187a0f90" data-name="&lt;Path&gt;" d="M796.46,456.23a39.65,39.65,0,0,1,1.49,5.1c.33,2.14,0,4.48,1.11,6.35,1.33,2.25,4.17,3,6.57,4a18.8,18.8,0,0,1,7.54,5.93c1.19,1.59,2.28,3.48,4.15,4.14a7.77,7.77,0,0,0,4.71-.33,101.83,101.83,0,0,0,18.17-7.29c-1.61-4.14-3.34-8.44-6.65-11.4a28.39,28.39,0,0,0-6.37-3.92L813,451.73c-3.39-1.7-8.38-4.88-12.35-4.42C796.34,447.82,795.44,452.79,796.46,456.23Z" transform="translate(-152.96 -237)" fill="#af998d"/><path id="20e2ddbf-313c-4f0b-840a-7c993d996e51" data-name="&lt;Path&gt;" d="M818.59,482.26a5,5,0,0,1-1.9,1.36,77.73,77.73,0,0,1-8.33,3.54c-3.16,1.13-6.8,2.43-8,5.57-.78,2.05-.26,4.34.31,6.46,2.17,8,5.24,16.22,11.42,21.78l10.75-4.3q-6.37-9.45-12.3-19.19c6.17-4.47,14.49-4.17,21.75-6.52a12.62,12.62,0,0,0,5.33-3c2.62-2.72,3-6.85,3.15-10.62.06-1.28,0-2.82-1.1-3.48a3.55,3.55,0,0,0-2.65-.07,87.53,87.53,0,0,0-10.7,3.31q-2.66,1-5.25,2.2C819,480.31,819.77,480.66,818.59,482.26Z" transform="translate(-152.96 -237)" fill="#af998d"/><path id="97995d34-8229-48cc-a70b-38b1639c86f1" data-name="&lt;Path&gt;" d="M831.64,497.89a20.81,20.81,0,0,0,4.13,4.17,19,19,0,0,0,5.34,2.19l14.33,4.23a6.22,6.22,0,0,1-1.31-5.8,18.37,18.37,0,0,1,2.72-5.55,50.9,50.9,0,0,1-11-.77,17.09,17.09,0,0,1-9.48-5.23c-1.18-1.39-2.22-3.15-4-3.63-1.4-.38-7.5,1.36-7.49,2.86,0,.94,2.7,3,3.34,3.69Q830,495.92,831.64,497.89Z" transform="translate(-152.96 -237)" fill="#af998d"/><path id="3d490128-e36f-457a-893a-cd89ae78b493" data-name="&lt;Path&gt;" d="M824.24,521.54a1.61,1.61,0,0,1,.54,1c0,.59-.66,1-1.25,1s-1.18-.13-1.76-.08c-.78.07-1.57.53-2.29.24a2.44,2.44,0,0,1-1-1l-3.35-5c1.92-1.14,3.07-2.63,4.84-.9C821.47,518.26,822.82,520,824.24,521.54Z" transform="translate(-152.96 -237)" fill="#f6b9ad"/><path id="e1b1dcdb-e465-458b-8a8a-f8d62e568d7e" data-name="&lt;Path&gt;" d="M810.13,524.31a3.38,3.38,0,0,0-1.31,1.1,1.32,1.32,0,0,0,.1,1.6,2,2,0,0,0,1.37.37l19.47.42c-.82-2-1.7-4.07-3.35-5.47-2.49-2.1-4.35-.72-6.91-.28C816.11,522.65,813.26,522.55,810.13,524.31Z" transform="translate(-152.96 -237)" fill="#af998d"/><path id="73fc6291-6c2e-4c13-a067-47b08101e246" data-name="&lt;Path&gt;" d="M860.23,499.11a3.59,3.59,0,0,1,1.77.29,3.3,3.3,0,0,1,1.33,2.5,5.2,5.2,0,0,0,.92,2.75l-10.9.43a2.67,2.67,0,0,1-2.21-.59,2.37,2.37,0,0,1-.44-1.26c-.28-2.21-.4-3.85,2-4.06S857.74,499.12,860.23,499.11Z" transform="translate(-152.96 -237)" fill="#f6b9ad"/><path id="185ff851-44d6-4a9c-a966-779c4f10f381" data-name="&lt;Path&gt;" d="M860.76,496.94a1.79,1.79,0,0,1,1.09-.61c.56,0,1,.45,1.34.88l8.37,10.21a2.18,2.18,0,0,1,.71,1.81,1.46,1.46,0,0,1-1.48.93,4.1,4.1,0,0,1-1.77-.62,73.84,73.84,0,0,1-8.94-5.7c-1.26-.94-3.12-1.71-2.62-3.24C857.88,499.34,859.81,497.84,860.76,496.94Z" transform="translate(-152.96 -237)" fill="#af998d"/><path id="74b1307a-4f6a-4964-a0cb-063a8e219fe2" data-name="&lt;Path&gt;" d="M825.1,463.11c1.15,2.07.95,5.1-1.07,6.34a7,7,0,0,1-2.7.78c-9.89,1.45-20,2.91-29.82,1.21a3.85,3.85,0,0,0-2.45.1c-.94.5-1.25,1.65-1.6,2.65s-1,2.1-2.1,2.11l-.66-2.35a3,3,0,0,0-2.13.79l.11-1.67a.92.92,0,0,1-1.56-.94c-.82-.05-1.08-1.25-.63-1.94a5.57,5.57,0,0,1,2-1.43c.71-.42,1.39-1.14,1.26-1.95-.89,0-1.27-1.33-.69-2a2.25,2.25,0,0,1,2.46-.39,19.71,19.71,0,0,1,2.31,1.31,12.33,12.33,0,0,0,5.37,1.1,91.48,91.48,0,0,0,23.15-2,6.66,6.66,0,0,1-4-4.24c2-.82,5.25-3,7.46-2.28C821.71,458.94,824.14,461.38,825.1,463.11Z" transform="translate(-152.96 -237)" fill="#f6b9ad"/><path id="af111dad-adef-4ab2-8d43-5591f944483e" data-name="&lt;Path&gt;" d="M775.77,471.67a3.89,3.89,0,0,0-2,.45,1.34,1.34,0,0,0-.54,1.75c.21.32.61.51.75.87.29.78-.88,1.59-.54,2.35s1.35.63,1.49,1.3a1.81,1.81,0,0,1-.08.68,2.29,2.29,0,0,0,1.81,2.41,4.93,4.93,0,0,0,3.21-.52,12.43,12.43,0,0,0,5-4.19,9.28,9.28,0,0,0-4.53,1.95c-.3-.24-.14-.75.17-1s.7-.31,1-.54.49-.72.21-1a.86.86,0,0,0-.68-.11q-1.29.16-2.57.42c.41-.37,1-.41,1.5-.66s.81-1,.36-1.32a1,1,0,0,0-.82,0,19.87,19.87,0,0,1-2.17.47c.12-.68,1.48-2,1.29-2.62C778.37,471.41,776.56,471.64,775.77,471.67Z" transform="translate(-152.96 -237)" fill="#f6b9ad"/><path id="17532615-4813-4abc-aa2c-add180be2984" data-name="&lt;Path&gt;" d="M787.12,424.78a14.29,14.29,0,0,1,4.2-1.38,26.89,26.89,0,0,1,6.2-.85,9,9,0,0,1,5.81,2c2.68,2.35,3.21,6.54,6,8.77,2.27,1.81,5.47,1.85,8.35,1.48s5.82-1.07,8.66-.44a4.72,4.72,0,0,1-5.07,2.85c.77.68,1.92.56,2.95.57s2.27.39,2.47,1.4a1.77,1.77,0,0,1-1.24,1.84,5.17,5.17,0,0,1-2.39.1,1.57,1.57,0,1,1,.23,2.73,1.18,1.18,0,1,1,.3,2.13c1.06-.1,1.68,1.38,1.2,2.33A4.11,4.11,0,0,1,822.2,450c-9.13,2.89-19,1-28.39-.94-1.54-.32-3.23-.72-4.15-2a6.42,6.42,0,0,1-.88-3.42c-.22-3.41,2.26-9.09-.26-11.68C786.3,429.7,783.37,426.65,787.12,424.78Z" transform="translate(-152.96 -237)" fill="#e96857"/><circle id="39072f92-2af6-4d55-86b6-8ab4d8087f8a" data-name="&lt;Path&gt;" cx="634.57" cy="196.33" r="0.68" fill="#fff"/><path d="M839.55,531c-1,0-2,0-3-.11L793.4,528l0-1.93L836.64,529c5.34.36,11.33.21,14.72-6l.92,1.27C849.18,529.91,844.32,531,839.55,531Z" transform="translate(-152.96 -237)" fill="url(#491c5384-5bb6-4515-9bf8-2e096eec042e)"/><path d="M839.55,530.09c-1,0-2,0-3-.07l-43.19-1.79,0-1.22,43.19,1.79c5.34.22,11.33.13,14.72-3.75l.92.8C849.18,529.4,844.32,530.09,839.55,530.09Z" transform="translate(-152.96 -237)" fill="#00bcd4"/><g id="f2e7f91c-2182-4daa-a3ff-07910179a774" data-name="&lt;Group&gt;"><circle cx="652.01" cy="296.1" r="4.08" fill="url(#71c937f5-a538-45d4-ad5b-4385e8eb0d4b)"/></g><circle id="0627d379-316c-4f31-8ade-cb158714e715" data-name="&lt;Path&gt;" cx="652.01" cy="296.1" r="3.63" fill="#00bcd4"/><g id="8d9d1e0f-60cf-41c5-b817-a9b8a862a037" data-name="&lt;Group&gt;"><circle cx="684.86" cy="296.1" r="4.1" fill="url(#4a0e2520-3ab6-4089-9dae-01315fb75998)"/></g><circle id="d743eb8d-d017-480c-be53-0ebb7944e0df" data-name="&lt;Path&gt;" cx="684.86" cy="296.1" r="3.63" fill="#00bcd4"/><g id="8109353c-8486-44bd-b10b-e594e811ec1f" data-name="&lt;Group&gt;"><g id="36dee7fe-d881-4285-bb3e-a65edee342f7" data-name="&lt;Group&gt;"><g id="ec268998-bdec-40c5-9add-081a4dab0ebf" data-name="&lt;Group&gt;"><path d="M702,500.69h-7a3.85,3.85,0,0,1-1.92-3.67s-5.43-2.89-7.69-2.19l-2.94-6.53s-3.71-1.28-4.28,1.41c0,0-1.11,9.88-1.57,10.82,0,0-1.05,13.35-19.61,8.21,0,0-5.2-2.47-9.84-.25,0,0-2.38.28-6.9-3.11,0,0-5,4.57,1.13,10.53,0,0-2.26,4.68-.23,9.12l2.6,10.57s.34,2.81,1.36,2.57h9.33a3,3,0,0,0-1.6-2l-1.15-.12v-5.5s1.18,2.7,6.38-2.21a32.42,32.42,0,0,0,17.52,2.09l1.11,6.65s.54,2.46,1.56,2.46h8a3.39,3.39,0,0,0-1.7-2.8l-1.13-.47-1.11-6s6.22,0,8.6-9.44l-.34-11.38s5.77-.79,8.94-2.9C699.51,506.63,702.45,506,702,500.69Z" transform="translate(-152.96 -237)" fill="url(#5e2ad4f4-197c-461c-b4c1-cc0037b97f70)"/></g><path id="0ca21117-6cfb-42df-afee-3f5148439230" data-name="&lt;Path&gt;" d="M700.27,501.85h-6.63a3.51,3.51,0,0,1-1.82-3.36s-5.14-2.64-7.28-2l-2.78-6s-2.57-1.17-3.1,1.29c0,0-.11,9-.53,9.9,0,0-2.89,13.13-20.43,8.43,0,0-4.92-2.26-9.31-.23,0,0-2.25,1.17-6.53-1.93,0,0-4.71,2.35,1.07,7.81,0,0-2.14,4.28-.21,8.34l2.46,10.59s.32,2.57,1.28,2.35h6a2.76,2.76,0,0,0-1.51-1.83l-1.08-.11v-5s3,.64,7.93-3.85c0,0,8.94,5.14,18.46,3.74l1,6.09s.51,2.25,1.47,2.25h5.67a3.08,3.08,0,0,0-1.6-2.56l-1.07-.43-.11-6.36s5.88,0,8.13-8.64l-.32-10.42s5.46-.73,8.45-2.65C697.92,507.28,700.7,506.71,700.27,501.85Z" transform="translate(-152.96 -237)" fill="#ff9800"/><path id="fa7d409f-14df-438a-b739-f6e7499c6acf" data-name="&lt;Path&gt;" d="M652.29,531.44a38.34,38.34,0,0,0,3.65-1.22v5.69h0a7.08,7.08,0,0,1,1.93,2.43h-4.07s.88-3.09-1.55-4.7Z" transform="translate(-152.96 -237)" fill="#ff9800"/><path id="2c5d6962-cb58-4d46-a2c6-4a0cc5a32e5c" data-name="&lt;Path&gt;" d="M683.92,530.11s2.43-1.55,3.65-2.25v8h.72s1.5,0,1.93,2.43h-4.07a6.06,6.06,0,0,0-2.23-4.7Z" transform="translate(-152.96 -237)" fill="#ff9800"/><path id="61de6336-8ed7-4379-9859-def8d8e83f11" data-name="&lt;Path&gt;" d="M683.48,491.92l1.82,3a11.45,11.45,0,0,1,2.89.64l-.64-4.49S685.3,487.64,683.48,491.92Z" transform="translate(-152.96 -237)" fill="#ff9800"/></g><circle id="570db843-1538-4ba6-b741-f1783f13f3be" data-name="&lt;Path&gt;" cx="538.25" cy="262.82" r="0.72" fill="#fff"/></g><ellipse id="7e8b9394-3556-4349-baf5-0e0c8c54f4a1" data-name="&lt;Path&gt;" cx="725.55" cy="367.77" rx="5.37" ry="5.97" fill="#af998d"/><ellipse id="2140706b-a880-40b3-9811-76638d337747" data-name="&lt;Path&gt;" cx="725.55" cy="367.77" rx="5.37" ry="5.97" opacity="0.6"/><path d="M878,624.78a20,20,0,1,1,20-20A20,20,0,0,1,878,624.78Zm0-35.41a15.4,15.4,0,1,0,15.4,15.4A15.42,15.42,0,0,0,878,589.37Z" transform="translate(-152.96 -237)" fill="#af998d"/><rect x="867.09" y="586.49" width="31.01" height="5.27" transform="translate(-43.84 1078.6) rotate(-76.93)" fill="#af998d"/><rect x="978.31" y="568" width="5.27" height="31.01" transform="translate(-259.58 0.2) rotate(-13.08)" fill="#af998d"/><rect x="867.09" y="586.49" width="31.01" height="5.27" transform="translate(-43.84 1078.6) rotate(-76.93)" opacity="0.6"/><rect x="978.31" y="568" width="5.27" height="31.01" transform="translate(-259.58 0.2) rotate(-13.08)" opacity="0.6"/><path d="M995.37,622.74a20,20,0,1,1,20-20A20,20,0,0,1,995.37,622.74Zm0-35.41a15.4,15.4,0,1,0,15.4,15.4A15.42,15.42,0,0,0,995.37,587.32Z" transform="translate(-152.96 -237)" fill="#af998d"/><path d="M878,626.54a21.77,21.77,0,1,1,21.77-21.77A21.79,21.79,0,0,1,878,626.54ZM878,588a16.76,16.76,0,1,0,16.76,16.76A16.78,16.78,0,0,0,878,588Z" transform="translate(-152.96 -237)" fill="url(#163f39b8-8aaf-446d-87c2-943b408736df)"/><path d="M878,624.78a20,20,0,1,1,20-20A20,20,0,0,1,878,624.78Zm0-35.41a15.4,15.4,0,1,0,15.4,15.4A15.42,15.42,0,0,0,878,589.37Z" transform="translate(-152.96 -237)" opacity="0.6"/><path d="M995.37,622.74a20,20,0,1,1,20-20A20,20,0,0,1,995.37,622.74Zm0-35.41a15.4,15.4,0,1,0,15.4,15.4A15.42,15.42,0,0,0,995.37,587.32Z" transform="translate(-152.96 -237)" opacity="0.6"/><path id="7e4e0f08-be37-4e57-93cb-dbd3eb6ff66a" data-name="&lt;Path&gt;" d="M882.75,575.73s16.43,30.56,23.77,37.86h42.11s2.69.79,11.48-2.13L962.35,590s4.79-22.69,30.63-22.69h18.79V550.63l-81.91,9.25s-7.49,8.93-1.43,13.08l15.66,17.16s1,8.93-4.11,8.29l-29.65-1.6-9.86-43.22-17.72,13.73S878.45,573.5,882.75,575.73Z" transform="translate(-152.96 -237)" fill="#af998d"/><polygon id="b18053d2-7f1c-4a4e-8554-eb7afc69a56e" data-name="&lt;Path&gt;" points="739.2 291.89 734.44 330.36 750.54 330.36 750.54 289.81 739.2 291.89" fill="#af998d"/><polygon id="6093f2e0-4475-4a54-9e1f-c297e525f4bb" data-name="&lt;Path&gt;" points="728.64 293.87 747.7 293.87 743.57 302.38 728.64 302.38 728.64 293.87" fill="#af998d"/><line id="b08dc8a9-90c3-4110-884f-5d5c6456559b" data-name="&lt;Path&gt;" x1="743.04" y1="292.25" x2="747.51" y2="306.93" fill="#70b1e8"/><path id="7bf8dec7-bcea-4648-99b4-27822b57ff5f" data-name="&lt;Path&gt;" d="M928.49,563.39,940.32,543s46.71-7.34,61.49-3.51c0,0,14.78,12.92,9.46,17Z" transform="translate(-152.96 -237)" fill="#af998d"/><path id="fa89e115-5a5a-4109-b726-bbf0b9a585d9" data-name="&lt;Path&gt;" d="M928.49,563.39,940.32,543s46.71-7.34,61.49-3.51c0,0,14.78,12.92,9.46,17Z" transform="translate(-152.96 -237)" fill="#fff" opacity="0.4"/><path d="M959.76,541.41A76.51,76.51,0,0,0,954,513.48c-1.28-3.09-3.07-6.37-6.23-7.46a6.34,6.34,0,0,0-1.15-.27c0-.42.08-.84.11-1.25l1-13.38c.46-6.25-5.72-7.64-10.93-8.09-4.9-.42-10.29,4.78-13.25,8.35-.93,1.12-1.9,2.37-1.86,3.82.05,1.93,1.81,3.28,3.15,4.66a13.66,13.66,0,0,1,3.66,7.37c.22,1.45.23,3,1,4.25,1.09,1.78,3.24,2.3,5.42,2.4-2,3.69-.66,5.94-2.36,9.78s-5.28,7.75-9.62,7.6c-2.29-.08-4.37-1.25-6.37-2.35s-4.14-2.2-6.43-2.14a5.48,5.48,0,0,0-2.63.8,4.48,4.48,0,1,0-1.25,5.55,9.15,9.15,0,0,0,4.51,2.73,33.69,33.69,0,0,0,23.75-1.7,12.06,12.06,0,0,0,2.08,8.07c-5.56,1.39-11.19,3.85-15.71,5.13-3.37,1-7.13,2.24-8.58,5.42-1,2.11-.63,4.55-.28,6.84l3.56,23.5a12.42,12.42,0,0,0,1.09,4,5.92,5.92,0,0,0,1.15,1.5,53.52,53.52,0,0,1-4.17,5.31c-1.1,1-2.38,2.32-2.08,3.8.38,1.87,2.82,2.3,4.73,2.31l7.5.07a4.46,4.46,0,0,0,2.81-.6c1-.79,1.16-2.27,1.2-3.57.08-2.65.13-5.4-.91-7.83a6.08,6.08,0,0,0,1.28-2.53c1.35-5.94-6.05-10.85-5.72-16.93.26-4.79,5.27-8,10-8.77s9.64-.06,14.31-1.15c3.84-.9,7.67-3.74,8.55-7.36l.76.06c3.2.17,2.88.57,3.51-2.52A36.07,36.07,0,0,0,959.76,541.41Z" transform="translate(-152.96 -237)" fill="url(#097014fb-e012-48bd-b2a2-931656a939e9)"/><path id="41d2faf2-aa50-40c9-9da9-81b766ca4305" data-name="&lt;Path&gt;" d="M925.65,491.36c-.89,1.07-1.83,2.28-1.79,3.68,0,1.85,1.74,3.16,3,4.49a13.14,13.14,0,0,1,3.52,7.09c.21,1.4.22,2.89,1,4.09,1.41,2.29,4.64,2.42,7.33,2.29,2-.1,4.24-.29,5.66-1.73s1.56-3.45,1.7-5.36L947,493c.44-6-5.5-7.35-10.52-7.78C931.76,484.84,928.5,487.93,925.65,491.36Z" transform="translate(-152.96 -237)" fill="#f6b9ad"/><path id="ffec4320-7938-4100-8dc8-03dd8b81e49a" data-name="&lt;Path&gt;" d="M953,514.54c-1.23-3-3-6.13-6-7.17-4-1.35-8.21,1.63-10.27,5.26s-2.7,7.9-4.39,11.72-5.08,7.46-9.25,7.31c-2.2-.08-4.21-1.2-6.13-2.26s-4-2.12-6.19-2.05-4.51,1.69-4.53,3.89c0,2.53,2.71,4.12,5.13,4.85a32.42,32.42,0,0,0,22.85-1.63c-.67,5.44,3.19,10.64,8,13.25A31,31,0,0,0,955,551.1c3.08.16,2.77.55,3.38-2.43a34.71,34.71,0,0,0,.24-7.26A73.62,73.62,0,0,0,953,514.54Z" transform="translate(-152.96 -237)" fill="#af998d"/><path id="f030c97e-203a-442b-8b0c-f9cf51b201e0" data-name="&lt;Path&gt;" d="M921.14,547.14c-3.24.92-6.86,2.15-8.25,5.22-.92,2-.6,4.38-.27,6.58L916,581.56a12,12,0,0,0,1,3.89A6,6,0,0,0,928.15,584c1.3-5.72-5.83-10.44-5.51-16.29.25-4.61,5.07-7.67,9.62-8.44s9.28-.06,13.77-1.11,9-4.86,8.36-9.43a8.47,8.47,0,0,0-4.76-6C941.37,538.41,929.37,544.81,921.14,547.14Z" transform="translate(-152.96 -237)" fill="#af998d"/><path id="2ab26614-c4e8-4986-9208-726e0e79bc10" data-name="&lt;Path&gt;" d="M914.18,592c-1.06,1-2.29,2.23-2,3.65.37,1.8,2.71,2.21,4.55,2.23l7.21.07a4.29,4.29,0,0,0,2.7-.58c1-.76,1.11-2.19,1.15-3.44.08-2.67.14-5.45-1-7.86C922.63,577.29,917.59,588.8,914.18,592Z" transform="translate(-152.96 -237)" fill="#af998d"/><circle id="a33ad536-4756-4f73-9c7d-ab8b9dd1fb24" data-name="&lt;Path&gt;" cx="778.32" cy="251.92" r="1.99" fill="#f3f9fe"/><g id="e6761180-a71a-458c-a01e-07754db6e419" data-name="&lt;Group&gt;"><path d="M959,493.43C959,483,950.81,476,940.39,476c-8.23,0-15.16,3.45-17.74,14.59h8.86V507.3h23.31C957.37,501.73,959,497.78,959,493.43Z" transform="translate(-152.96 -237)" fill="url(#6df3e3e5-86a3-44c3-9316-3d4cd973ba86)"/></g><path id="68018b46-7fd0-4cab-8ebe-d82d6dc6efc8" data-name="&lt;Path&gt;" d="M956.66,493.2c0-9.1-7.11-15.22-16.22-15.22-7.19,0-13.24,3-15.5,12.74h7.74v14.6h20.36C955.28,500.45,956.66,497,956.66,493.2Z" transform="translate(-152.96 -237)" fill="#f44336"/><path id="e19b9201-6d80-4497-8085-d821d8d2afc3" data-name="&lt;Path&gt;" d="M932.4,500.42a4.62,4.62,0,0,1-2.54,3" transform="translate(-152.96 -237)" fill="none" stroke="#f3f9fe" stroke-miterlimit="10" stroke-width="1.05"/><g id="a8d0c5a0-5c26-4df5-a99b-30f89e30803d" data-name="&lt;Group&gt;"><path d="M980.14,580.46s24.38-7.27,44.9,15l-24.38,6.84-14.11-6.84Z" transform="translate(-152.96 -237)" fill="url(#56b80dd4-5144-4653-b9bc-1811d19424ed)"/></g><path id="87068615-025d-4ce5-8c87-19b446b71c73" data-name="&lt;Path&gt;" d="M981.43,581.06s23-6.85,42.32,14.11l-23,6.45-13.3-6.45Z" transform="translate(-152.96 -237)" fill="#af998d"/><rect id="a699cf6f-f968-4d10-814a-5f03b0524c89" data-name="&lt;Rectangle&gt;" x="801.22" y="354.25" width="46.5" height="16.48" rx="5.87" ry="5.87" fill="#af998d"/><path d="M929.37,559.55s-7.71,9.2-1.47,13.47L944,590.69s1,9.2-4.23,8.54l-30.53-1.64-7-30.84V534.5a7.49,7.49,0,0,0-8.85-7.37l-2.83.52-.25,2H879.68v8.77h9.53l-3.05,24.67-5.3,4.1s-4.43,6.35,0,8.65c0,0,16.92,31.47,24.47,39H948.7s2.77.82,11.83-2.19l.41-3.89a7.31,7.31,0,0,0,.82,0h33.18a7.37,7.37,0,0,0,7.35-7.35V599.2a7.37,7.37,0,0,0-7.35-7.35H962.7l.13-1.24s4.93-23.36,31.53-23.36h19.35V550Z" transform="translate(-152.96 -237)" fill="url(#28081b5f-bb69-4175-8d80-4a62325bfafe)"/><path d="M929.85,559.88s-7.49,8.93-1.43,13.08l15.66,17.16s1,8.93-4.11,8.29l-29.65-1.6-6.83-30V535.55a7.28,7.28,0,0,0-8.59-7.16l-2.74.5-.24,2H881.6v8.52h9.26l-3,24-5.15,4s-4.3,6.17,0,8.4c0,0,16.43,30.56,23.77,37.86h42.11s2.69.79,11.48-2.13l.39-3.77a7.1,7.1,0,0,0,.8,0h32.23a7.16,7.16,0,0,0,7.14-7.14v-2.21a7.16,7.16,0,0,0-7.14-7.14H962.23l.13-1.2s4.79-22.69,30.63-22.69h18.79V550.63Z" transform="translate(-152.96 -237)" opacity="0.2"/><rect x="109.09" y="353.79" width="113" height="4.21" fill="url(#4fb3b8b8-a37f-4d33-b457-fd56a9bcb668)"/><rect x="233.09" y="336.79" width="73" height="4.21" fill="url(#31afc422-f12e-42de-a731-91cfe4c9b4c0)"/><rect x="294.09" y="353.79" width="41" height="4.21" fill="url(#cad59456-ac5f-43ce-bcf8-ce9cb84d0f45)"/><rect x="336.09" y="401.79" width="17" height="4.21" fill="url(#1a985ef9-91cc-44e3-9bbe-3b955a6a05b9)"/><rect x="101.09" y="410.79" width="24" height="4.21" fill="url(#4dc24e55-70a5-46de-a838-acd1c1dd0491)"/><rect x="121.09" y="421.79" width="31" height="4.21" fill="url(#c2ba7a5b-891e-4312-b945-062d3e28baf5)"/><rect x="315.09" y="411.79" width="26" height="4.21" fill="url(#f8e53d43-3cfc-4984-b636-96b6858a0d95)"/><rect x="426.09" y="383.79" width="92" height="4.21" fill="url(#5214ff22-1765-4423-990c-afaa7d5feab6)"/><rect x="528.09" y="360.79" width="31" height="4.21" fill="url(#affed9dc-8c9f-4e15-a68b-b4d37b04e580)"/><rect x="649.09" y="401.79" width="31" height="4.21" fill="url(#5cfeb59b-50ee-4fbe-aece-b9c779a9ef04)"/><rect x="617.09" y="417.79" width="54" height="4.21" fill="url(#bd443338-970b-41d8-a0a9-ad46ad3443de)"/><rect x="110.66" y="354.69" width="110.7" height="2.43" fill="#b0bec5"/><rect x="235.96" y="337.66" width="68.12" height="2.43" fill="#b0bec5"/><rect x="298" y="354.69" width="34.06" height="2.43" fill="#b0bec5"/><rect x="428.17" y="385.11" width="88.8" height="2.43" fill="#b0bec5"/><rect x="530.35" y="361.99" width="26.76" height="2.43" fill="#b0bec5"/><rect x="103.36" y="411.87" width="20.68" height="2.43" fill="#b0bec5"/><rect x="124.04" y="422.82" width="25.55" height="2.43" fill="#b0bec5"/><rect x="317.47" y="411.87" width="20.68" height="2.43" fill="#b0bec5"/><rect x="338.15" y="402.14" width="13.38" height="2.43" fill="#b0bec5"/><rect x="620.38" y="417.95" width="45.01" height="2.43" fill="#b0bec5"/><rect x="652.01" y="402.14" width="24.33" height="2.43" fill="#b0bec5"/><path d="M583,452.41l-2.78-.35A4.48,4.48,0,0,0,583,452.41Z" transform="translate(-152.96 -237)" fill="url(#afe93035-0778-4bba-92d5-73f75607f287)"/><path d="M636.14,522.68c-.84-4.07-2.69-8.13-3.64-12.17-.89-3.76-.86-7.51-2-11.2-.54-1.75-2.13-3.49-2.75-5.21l.13-.51a4,4,0,0,0,3-6.23c-1.3-1.9-3.88-2.31-6.16-2.55l-.77-.08a7.06,7.06,0,0,1-3.89-5,30.9,30.9,0,0,1-.51-6.82,12.24,12.24,0,0,0-1.64-6.56,7.37,7.37,0,0,0-1.9-1.76,6.91,6.91,0,0,0,0-.79c0-.64-6.89-1.92-7.67-2.07-1.59-.31-3.28-.65-5-.84-.12-1.53.85-2.29,2.07-3.19a7.89,7.89,0,0,1,2-.81c2.53-.94,3.88-4.64,5-7.1a3,3,0,0,0,.37-2.25c-.19-.5-1.63-.86-2-1.29-1-1.3.22-3.09.21-4.71,0-.34,1-.65.93-.95.7-.26.3-.74.57-1.42.53-1.35-1.36-2.81-2.28-3.93-1.2-1.48-3-3-4.8-2.28-.82.34-1.43,1.14-2.3,1.33-1.47.33-2.64-1.14-4-1.86-2.35-1.27-5.42,0-7,2.14s-2.1,4.88-2.54,7.51-.9,5.38-2.46,7.54c-1,1.37-6.56,3.42-8.19,3.71,4.54.57,12.08,1.14,16.61,1.7a5.41,5.41,0,0,1,.15,1.48c0,.9.59,3,.37,5.45a11.31,11.31,0,0,1-1.39.48c-2.25.6-4.68.79-6.69,2.08a12.66,12.66,0,0,0-4,5A58.7,58.7,0,0,0,577.88,497c.66-.66,1.33-1.32,2-2a19.88,19.88,0,0,0-.74,3.71c7,.74,13,1,19.76,2.81a2.48,2.48,0,0,1,2.43,2.81l1.15,30.46.13.09v0a1.53,1.53,0,0,0-.6,1.24,1.46,1.46,0,0,0,.7.83c3.55,2.45,10,2.5,14.31,1.88-.17,0-4.89-5.85-5.58-6.43l-.41-.36a9,9,0,0,0,1.07-2.62,39.14,39.14,0,0,0,.64-5.23c.63-6.07,1.93-9.81,3.64-15.67a84,84,0,0,1,11,17.6l-.21,2.34a44.63,44.63,0,0,0,13.4-1.18C639.68,526.41,638.46,524.19,636.14,522.68Zm-20.56-32.62a6.92,6.92,0,0,0-.56-.44c.45,0,.89,0,1.34,0q-.4.21-.78.44Zm-4.72-20.23c1,2,2.19,3.88,2.54,4.78a16.94,16.94,0,0,1,1.29,9.13l-3.68-.39a6.48,6.48,0,0,0,1-5.55c-.54-1.68-1.82-3-2.82-4.44l-.12-.17A2.17,2.17,0,0,1,610.87,469.83Z" transform="translate(-152.96 -237)" fill="url(#a16dde29-af65-4251-9cbe-fd11a089ef57)"/><path id="b7d8da1b-d140-4eab-aedb-ec0800758368" data-name="&lt;Path&gt;" d="M617.73,466.79a12,12,0,0,1,1.61,6.43,30.29,30.29,0,0,0,.5,6.68c.56,2.17,2,4.28,4.09,5,1,.32,2.41.69,2.3,1.73-.08.74-.94,1.1-1.67,1.24a16.66,16.66,0,0,1-10.79-1.5c1.75-3.54,1-7.83-.43-11.5-.78-1.94-5.46-8.78-3.91-10.5C611.5,462,616.47,464.92,617.73,466.79Z" transform="translate(-152.96 -237)" fill="#f6b9ad"/><path id="34548efa-d4a5-4e68-9990-5f063fd38740" data-name="&lt;Path&gt;" d="M610.08,442.48c0,1.59-.18,3.34.78,4.62a5.7,5.7,0,0,1,.93,1.26,3,3,0,0,1-.36,2.21c-1.09,2.41-2.41,5.06-4.89,6a7.73,7.73,0,0,0-2,.79c-1.26.93-1.16,2.8-1,4.37s0,3.51-1.49,4.12c-2.55-1.17-5.63,2.23-5.77-.57-.07-1.34.71-7.72.78-9.06.12-2.35-1.44-4.4-2.74-6.36s-2.45-4.44-1.47-6.58c.71-1.54,2.34-2.43,3.91-3.07C600.94,438.46,610,435,610.08,442.48Z" transform="translate(-152.96 -237)" fill="#f6b9ad"/><path id="285088f7-1464-4a5f-87ed-0112ffafe0e7" data-name="&lt;Path&gt;" d="M608.86,441.78a2.9,2.9,0,0,0,2.68-1.61c.52-1.32-.36-2.75-1.25-3.85-1.18-1.45-3-3-4.71-2.24-.81.34-1.4,1.12-2.25,1.31-1.44.32-2.59-1.12-3.88-1.82-2.3-1.25-5.32,0-6.89,2.09s-2.06,4.78-2.49,7.36-.88,5.27-2.41,7.39-4.49,3.47-6.84,2.32l18.65,2.33c1.12-.87.76-2.7-.11-3.82s-2.12-1.95-2.77-3.21-.22-3.25,1.19-3.42c1.8-.21,3.18,2.69,4.82,1.93a2.25,2.25,0,0,0,.95-2.27,5.54,5.54,0,0,1,.1-2.59C604.5,439.81,607.48,441.8,608.86,441.78Z" transform="translate(-152.96 -237)" fill="#3d213c"/><circle id="f20403bd-4366-4298-895a-64525d2e71ba" data-name="&lt;Path&gt;" cx="454.27" cy="207.39" r="1.05" fill="#fff"/><path id="95ab03bb-ba7a-431f-aac3-ee2623b23579" data-name="&lt;Path&gt;" d="M588.51,465a12.41,12.41,0,0,0-3.95,4.94,53.67,53.67,0,0,0-6.07,25.86c4.06-4.06,8.55-8.34,14.25-9.07,4-.51,8,.82,12,.21a9.53,9.53,0,0,0,5.73-2.91,6.48,6.48,0,0,0,1.47-6.1c-.53-1.65-1.78-2.93-2.77-4.35l-.11-.17a2.14,2.14,0,0,1,1.9-3.3,4.32,4.32,0,0,0,2.53-.68,5.94,5.94,0,0,0,2.4-5.17c0-.63-6.75-1.88-7.52-2a35.74,35.74,0,0,0-8.05-1c-1.9.08-3.41,1.21-5.25,1.7C592.86,463.58,590.48,463.77,588.51,465Z" transform="translate(-152.96 -237)" fill="#af998d"/><path id="61dc29d3-ce4d-45e3-845b-ae2c17167386" data-name="&lt;Path&gt;" d="M579.74,497.54a136.46,136.46,0,0,1,20.36,3.73,2.43,2.43,0,0,1,2.38,2.76l1.13,29.86a4,4,0,0,0,4.8,0,7.17,7.17,0,0,0,2.65-4.3,38.36,38.36,0,0,0,.62-5.13c.87-8.44,5.06-16.24,6.18-24.65.46-3.49.2-7.49-2.4-9.86-1.75-1.59-4.2-2.1-6.53-2.5a132.09,132.09,0,0,0-20.7-2.35C583.05,485.08,580.12,493.24,579.74,497.54Z" transform="translate(-152.96 -237)" fill="#af998d"/><path id="a1954b57-da3c-4d93-869f-f5349de83d05" data-name="&lt;Path&gt;" d="M615.88,538.84A17.12,17.12,0,0,1,603.82,536a1.43,1.43,0,0,1-.68-.81,1.5,1.5,0,0,1,.59-1.21c.82-.85,2.21-3,3.41-3.23s2.43,1.06,3.27,1.77C611.09,533.11,615.71,538.87,615.88,538.84Z" transform="translate(-152.96 -237)" fill="#af998d"/><path id="4a7ecc6e-1ea9-400c-99cc-187a4bf050f0" data-name="&lt;Path&gt;" d="M634.78,522.64l-6.6,3.11a93.55,93.55,0,0,0-15.23-22.38c-1.22-1.33-2.54-2.73-2.86-4.51a6.77,6.77,0,0,1,1-4.42,12.66,12.66,0,0,1,6.16-5.37c1.79-.75,6.27-2,8-.53,1,.9,1.6,3.85,2.07,5.13q1,2.66,1.81,5.38c1.12,3.62,2.08,7.29,3,11C633,514.21,633.9,518.43,634.78,522.64Z" transform="translate(-152.96 -237)" fill="#af998d"/><path id="417af482-54c8-4602-9e41-fe6b7b857efc" data-name="&lt;Path&gt;" d="M640,526.53a37.55,37.55,0,0,1-12.16,1.16l.38-4.3a3.71,3.71,0,0,1,.4-1.62C631.09,517.62,638.18,524.67,640,526.53Z" transform="translate(-152.96 -237)" fill="#af998d"/><path id="31b3f1fe-46f0-46af-ba14-72b340ba0b37" data-name="&lt;Path&gt;" d="M596.45,481.45a7.43,7.43,0,0,0,2.87.7l25.08,2.68c2.24.24,4.77.64,6,2.5a3.91,3.91,0,0,1-2.94,6.1l-.22.85a9.55,9.55,0,0,1-4.92,1.34c1-1.84-.31-4.21-2.14-5.18s-4-.94-6.08-.87l-11.33.35c-3.13.1-6.36.18-9.28-.95s-5.5-3.77-5.54-6.9c1.74-.69,3.72-1.85,5.56-2.21C595.59,479.44,594.75,480.51,596.45,481.45Z" transform="translate(-152.96 -237)" fill="#f6b9ad"/><path id="1eb50c9b-b14c-4835-a2c5-2d4662a18968" data-name="&lt;Path&gt;" d="M606.37,452.71a7.25,7.25,0,0,0,4.11-.61" transform="translate(-152.96 -237)" fill="none" stroke="#f3f9fe" stroke-miterlimit="10" stroke-width="0.5"/><circle id="3b2fe844-545e-4c0e-998f-9c214a6cf3af" data-name="&lt;Path&gt;" cx="751.49" cy="293.05" r="4.31" fill="#f6b9ad"/><rect x="251.09" y="106.53" width="5.76" height="13.38" fill="url(#75d1472e-bff2-4dbd-a077-4f04cd393be1)"/><rect x="251.77" y="106.53" width="3.65" height="13.38" fill="#4dd0e1"/><rect x="221.36" y="102.21" width="35.73" height="4.79" fill="url(#78167e85-cdc8-443f-aeca-b1b3a57f6b32)"/><rect x="221.36" y="102.88" width="34.06" height="3.65" fill="#4dd0e1"/><g id="a6129a25-a376-405c-976e-1d270ea117e8" data-name="&lt;Group&gt;"><circle cx="252.71" cy="130.04" r="12.37" fill="url(#3b7b7e5b-6798-41f2-b764-80febc633f33)"/></g><circle id="d893621c-01f0-45a7-b550-74b72dffc460" data-name="&lt;Path&gt;" cx="252.71" cy="128.04" r="11.4" fill="#ffeb3b"/><rect x="220.09" y="67.6" width="5.79" height="181.26" fill="url(#7ae9024c-88a5-4cfa-86bd-78c79132cf40)"/><rect x="221.36" y="67.6" width="3.65" height="181.26" fill="#4dd0e1"/><circle id="a40e6be9-fc45-481b-93d2-de7f6fe1782a" data-name="&lt;Path&gt;" cx="222.91" cy="60.68" r="9.08" fill="#37474f"/><rect x="234.09" y="115.22" width="38" height="6.78" fill="url(#d26d4715-3dec-4a0e-8a9b-a22f2850aa22)"/><rect x="235.96" y="116.26" width="34.06" height="3.65" fill="#4dd0e1"/><g id="945ebf55-f433-424f-b157-2180eac79c9a" data-name="&lt;Group&gt;"><path d="M375.66,540.83h0c-7.36,0-13.38,1.65-13.38-5.23V485.52c0-6.89,6-12.52,13.38-12.52h0C383,473,389,478.63,389,485.52v50.07C389,542.48,383,540.83,375.66,540.83Z" transform="translate(-152.96 -237)" fill="url(#094520fc-ca0f-47fd-aa5b-094bf7992c50)"/></g><path id="d54983cd-212c-4164-b17c-e733b710a034" data-name="&lt;Path&gt;" d="M375.66,538.18h0c-6.39,0-11.61,1.53-11.61-4.86V486.87a11.65,11.65,0,0,1,11.61-11.61h0a11.65,11.65,0,0,1,11.61,11.61v46.45C387.27,539.71,382,538.18,375.66,538.18Z" transform="translate(-152.96 -237)" fill="#4dd0e1"/><rect x="831.33" y="106.53" width="5.76" height="13.38" fill="url(#25a5fc66-c236-4f54-b131-90b744b0cb50)"/><rect x="832.76" y="106.53" width="3.65" height="13.38" fill="#4dd0e1"/><rect x="831.09" y="102.21" width="35.73" height="4.79" fill="url(#a50af3f7-859d-47a8-a025-60efee98935c)"/><rect x="832.76" y="102.88" width="34.06" height="3.65" fill="#4dd0e1"/><g id="f6218cca-e260-4c7d-b2ab-33ab835ce626" data-name="&lt;Group&gt;"><circle cx="835.46" cy="130.04" r="12.37" fill="url(#577c082c-dccd-46b7-822a-295cdd9a0184)"/></g><circle id="ae58f180-4131-4850-9186-2012e7e996c1" data-name="&lt;Path&gt;" cx="835.46" cy="128.04" r="11.4" fill="#ffeb3b"/><rect x="862.3" y="67.6" width="5.79" height="181.26" fill="url(#b7d3a210-c113-40e9-adb9-b8319815a8f5)"/><rect x="863.17" y="67.6" width="3.65" height="181.26" fill="#4dd0e1"/><circle id="f4808c2a-815c-4a26-abfc-87a415a5b687" data-name="&lt;Path&gt;" cx="865.27" cy="60.68" r="9.08" fill="#37474f"/><rect x="816.09" y="115.22" width="38" height="6.78" fill="url(#bd44765c-4ca4-4e24-8507-b43d2ce6a5d0)"/><rect x="818.16" y="116.26" width="34.06" height="3.65" fill="#4dd0e1"/><g id="68ab21ba-789c-44ca-a2ff-ff817c3651b0" data-name="&lt;Group&gt;"><path d="M1018.43,540.83h0c7.36,0,13.38,1.65,13.38-5.23V485.52c0-6.89-6-12.52-13.38-12.52h0c-7.36,0-13.38,5.63-13.38,12.52v50.07C1005,542.48,1011.07,540.83,1018.43,540.83Z" transform="translate(-152.96 -237)" fill="url(#fefacc84-be80-4862-9c3d-a9d37eed5712)"/></g><path id="3b513b0a-caf3-4862-8a44-54f543912f25" data-name="&lt;Path&gt;" d="M1018.43,538.18h0c6.39,0,11.61,1.53,11.61-4.86V486.87a11.65,11.65,0,0,0-11.61-11.61h0a11.65,11.65,0,0,0-11.61,11.61v46.45C1006.82,539.71,1012,538.18,1018.43,538.18Z" transform="translate(-152.96 -237)" fill="#4dd0e1"/></svg>